<svg xmlns="http://www.w3.org/2000/svg" xmlns:xlink="http://www.w3.org/1999/xlink" width="500" zoomAndPan="magnify" viewBox="0 0 375 374.999991" height="500" preserveAspectRatio="xMidYMid meet" version="1.0"><defs><g></g><clipPath id="6ee3ea41d9"><path d="M 112.5625 149.699219 L 179.617188 149.699219 L 179.617188 187.492188 L 112.5625 187.492188 Z M 112.5625 149.699219 " clip-rule="nonzero"></path></clipPath><clipPath id="f5a6c0b615"><path d="M 195.105469 149.699219 L 262.433594 149.699219 L 262.433594 187.492188 L 195.105469 187.492188 Z M 195.105469 149.699219 " clip-rule="nonzero"></path></clipPath></defs><rect x="-37.5" width="450" fill="#ffffff" y="-37.499999" height="449.999989" fill-opacity="1"></rect><rect x="-37.5" width="450" fill="#ffffff" y="-37.499999" height="449.999989" fill-opacity="1"></rect><g clip-path="url(#6ee3ea41d9)"><path fill="#961163" d="M 159.324219 183.300781 C 157.542969 183.300781 155.773438 183.214844 154.019531 183.03125 C 151.09375 182.722656 148.226562 182.140625 145.472656 181.28125 C 142.71875 180.414062 140.085938 179.25 137.632812 177.792969 C 135.175781 176.34375 132.804688 174.585938 130.589844 172.71875 C 128.390625 170.816406 126.292969 168.789062 124.390625 166.578125 C 123.421875 165.492188 122.507812 164.355469 121.628906 163.203125 L 120.640625 161.828125 C 120.777344 161.722656 120.910156 161.609375 121.050781 161.503906 C 121.902344 160.847656 122.796875 160.226562 123.71875 159.652344 C 125.566406 158.507812 127.511719 157.523438 129.535156 156.742188 C 132.976562 155.417969 136.640625 154.6875 140.355469 154.6875 C 140.601562 154.6875 140.851562 154.707031 141.101562 154.710938 C 140.386719 153.320312 139.722656 151.839844 139.140625 150.28125 C 139.089844 150.148438 139.050781 150.027344 139.003906 149.898438 C 138.53125 149.878906 138.058594 149.84375 137.582031 149.84375 C 134.234375 149.84375 130.867188 150.367188 127.671875 151.386719 C 125.222656 152.152344 122.863281 153.1875 120.636719 154.449219 C 119.519531 155.078125 118.433594 155.757812 117.378906 156.496094 C 116.851562 156.867188 116.335938 157.257812 115.824219 157.667969 C 115.570312 157.871094 115.316406 158.078125 115.0625 158.296875 L 114.675781 158.632812 C 114.539062 158.757812 114.4375 158.847656 114.25 159.03125 L 112.5625 160.664062 L 113.714844 162.773438 C 113.964844 163.234375 114.160156 163.558594 114.382812 163.933594 L 115.046875 164.992188 C 115.492188 165.6875 115.964844 166.359375 116.445312 167.023438 C 117.417969 168.335938 118.429688 169.617188 119.5 170.847656 C 121.652344 173.292969 123.988281 175.582031 126.550781 177.609375 C 129.109375 179.664062 131.847656 181.414062 134.78125 182.96875 C 137.742188 184.476562 140.863281 185.679688 144.078125 186.394531 C 147.289062 187.140625 150.5625 187.476562 153.800781 187.496094 C 157.042969 187.476562 160.25 187.136719 163.375 186.511719 C 164.9375 186.203125 166.476562 185.800781 168 185.367188 C 169.511719 184.910156 171.007812 184.40625 172.472656 183.828125 C 174.933594 182.855469 177.328125 181.726562 179.585938 180.390625 L 178.902344 180.242188 C 173.632812 181.839844 168.269531 182.84375 162.929688 183.1875 C 161.726562 183.261719 160.523438 183.300781 159.324219 183.300781 " fill-opacity="1" fill-rule="nonzero"></path></g><path fill="#040606" d="M 180.851562 179.628906 C 180.527344 179.738281 180.195312 179.835938 179.871094 179.9375 L 180.125 180.066406 C 180.367188 179.917969 180.613281 179.78125 180.851562 179.628906 " fill-opacity="1" fill-rule="nonzero"></path><path fill="#040606" d="M 141.050781 152.382812 C 140.695312 151.578125 140.363281 150.765625 140.054688 149.941406 C 140.363281 150.765625 140.695312 151.578125 141.050781 152.382812 " fill-opacity="1" fill-rule="nonzero"></path><path fill="#d61362" d="M 159.15625 168.125 C 156.910156 166.140625 154.824219 164.007812 152.96875 161.722656 C 151.476562 159.882812 150.148438 157.941406 148.980469 155.921875 C 148.699219 155.433594 148.421875 154.945312 148.160156 154.449219 C 147.601562 153.375 147.109375 152.277344 146.65625 151.164062 C 146.03125 149.621094 145.496094 148.046875 145.085938 146.445312 C 144.378906 143.683594 143.941406 140.765625 143.699219 137.882812 C 143.492188 134.984375 143.445312 132.066406 143.664062 129.164062 C 143.75 127.707031 143.90625 126.261719 144.101562 124.824219 L 144.371094 123.15625 C 144.546875 123.175781 144.71875 123.191406 144.894531 123.214844 C 145.964844 123.351562 147.035156 123.546875 148.089844 123.789062 C 150.207031 124.285156 152.28125 124.964844 154.265625 125.839844 C 158.226562 127.597656 161.832031 130.148438 164.714844 133.464844 C 164.953125 133.734375 165.179688 134.023438 165.410156 134.304688 C 165.589844 133.746094 165.78125 133.175781 166.011719 132.574219 C 166.402344 131.546875 166.855469 130.507812 167.332031 129.46875 C 164.5 125.863281 160.84375 122.851562 156.738281 120.738281 C 154.464844 119.550781 152.066406 118.613281 149.597656 117.933594 C 148.363281 117.589844 147.113281 117.308594 145.84375 117.082031 C 145.207031 116.972656 144.566406 116.886719 143.917969 116.8125 C 143.589844 116.777344 143.265625 116.742188 142.929688 116.71875 L 142.421875 116.683594 C 142.234375 116.675781 142.097656 116.667969 141.835938 116.660156 L 139.488281 116.625 L 138.808594 118.933594 C 138.660156 119.4375 138.566406 119.804688 138.460938 120.226562 L 138.179688 121.441406 C 138.003906 122.25 137.859375 123.058594 137.730469 123.867188 C 137.488281 125.480469 137.296875 127.101562 137.183594 128.726562 C 136.972656 131.976562 137.007812 135.246094 137.382812 138.488281 C 137.734375 141.746094 138.433594 144.921875 139.40625 148.09375 C 139.5 148.378906 139.609375 148.664062 139.707031 148.949219 C 139.765625 149.117188 139.824219 149.28125 139.882812 149.445312 C 139.941406 149.609375 139.996094 149.777344 140.054688 149.941406 C 140.363281 150.765625 140.695312 151.578125 141.050781 152.382812 C 141.410156 153.183594 141.792969 153.976562 142.203125 154.75 C 142.296875 154.921875 142.40625 155.085938 142.5 155.257812 C 142.59375 155.429688 142.695312 155.597656 142.792969 155.765625 C 143.046875 156.207031 143.285156 156.652344 143.558594 157.082031 C 145.296875 159.875 147.375 162.425781 149.652344 164.722656 C 151.957031 167 154.464844 169.027344 157.117188 170.792969 C 158.441406 171.675781 159.816406 172.476562 161.195312 173.25 C 162.59375 173.992188 164.007812 174.695312 165.449219 175.320312 C 168.335938 176.566406 171.300781 177.613281 174.351562 178.265625 C 168.800781 175.488281 163.671875 172.089844 159.15625 168.125 " fill-opacity="1" fill-rule="nonzero"></path><path fill="#040606" d="M 180.125 180.066406 L 179.871094 179.9375 C 179.546875 180.039062 179.226562 180.144531 178.902344 180.242188 L 179.585938 180.390625 C 179.769531 180.285156 179.945312 180.175781 180.125 180.066406 " fill-opacity="1" fill-rule="nonzero"></path><g clip-path="url(#f5a6c0b615)"><path fill="#961163" d="M 233.78125 154.710938 C 234.03125 154.703125 234.28125 154.6875 234.53125 154.6875 C 238.261719 154.6875 241.941406 155.417969 245.394531 156.738281 C 247.425781 157.523438 249.378906 158.507812 251.234375 159.652344 C 252.15625 160.226562 253.054688 160.84375 253.914062 161.503906 C 254.054688 161.609375 254.1875 161.722656 254.324219 161.828125 L 253.332031 163.199219 C 252.449219 164.355469 251.53125 165.488281 250.558594 166.578125 C 248.648438 168.785156 246.542969 170.816406 244.335938 172.71875 C 242.113281 174.585938 239.734375 176.339844 237.265625 177.792969 C 234.800781 179.25 232.160156 180.410156 229.394531 181.28125 C 226.628906 182.140625 223.75 182.722656 220.8125 183.03125 C 219.054688 183.210938 217.277344 183.296875 215.488281 183.296875 C 214.285156 183.296875 213.078125 183.257812 211.867188 183.1875 C 206.507812 182.839844 201.125 181.835938 195.832031 180.242188 L 195.144531 180.390625 C 197.414062 181.726562 199.816406 182.855469 202.289062 183.828125 C 203.757812 184.40625 205.257812 184.90625 206.78125 185.367188 C 208.308594 185.800781 209.851562 186.203125 211.421875 186.511719 C 214.558594 187.136719 217.777344 187.476562 221.03125 187.492188 C 224.285156 187.476562 227.570312 187.140625 230.792969 186.394531 C 234.023438 185.675781 237.15625 184.476562 240.125 182.96875 C 243.070312 181.414062 245.824219 179.660156 248.386719 177.609375 C 250.960938 175.582031 253.308594 173.289062 255.46875 170.847656 C 256.542969 169.617188 257.558594 168.335938 258.535156 167.023438 C 259.015625 166.359375 259.492188 165.6875 259.9375 164.992188 L 260.605469 163.933594 C 260.828125 163.558594 261.023438 163.234375 261.277344 162.773438 L 262.433594 160.660156 L 260.738281 159.027344 C 260.550781 158.847656 260.449219 158.757812 260.308594 158.632812 L 259.925781 158.296875 C 259.667969 158.078125 259.414062 157.871094 259.15625 157.664062 C 258.644531 157.257812 258.128906 156.867188 257.597656 156.496094 C 256.539062 155.757812 255.445312 155.078125 254.328125 154.449219 C 252.089844 153.183594 249.722656 152.152344 247.261719 151.386719 C 244.058594 150.363281 240.675781 149.84375 237.3125 149.84375 C 236.835938 149.84375 236.363281 149.878906 235.886719 149.898438 C 235.839844 150.027344 235.796875 150.148438 235.746094 150.28125 C 235.164062 151.839844 234.496094 153.320312 233.78125 154.710938 " fill-opacity="1" fill-rule="nonzero"></path></g><path fill="#040606" d="M 193.875 179.628906 C 194.113281 179.78125 194.363281 179.917969 194.605469 180.066406 L 194.863281 179.9375 C 194.535156 179.832031 194.203125 179.734375 193.875 179.628906 " fill-opacity="1" fill-rule="nonzero"></path><path fill="#d61362" d="M 237.71875 128.726562 C 237.601562 127.101562 237.410156 125.480469 237.167969 123.863281 C 237.035156 123.054688 236.894531 122.25 236.714844 121.441406 L 236.433594 120.226562 C 236.328125 119.800781 236.234375 119.4375 236.085938 118.929688 L 235.402344 116.625 L 233.042969 116.660156 C 232.78125 116.664062 232.644531 116.671875 232.460938 116.683594 L 231.949219 116.71875 C 231.613281 116.742188 231.285156 116.777344 230.957031 116.8125 C 230.304688 116.882812 229.660156 116.972656 229.023438 117.082031 C 227.75 117.304688 226.492188 117.589844 225.253906 117.933594 C 222.773438 118.613281 220.367188 119.550781 218.082031 120.738281 C 213.933594 122.863281 210.242188 125.90625 207.386719 129.542969 C 207.421875 129.621094 207.457031 129.691406 207.492188 129.769531 C 207.972656 130.828125 208.347656 131.722656 208.675781 132.578125 C 208.898438 133.167969 209.101562 133.78125 209.296875 134.402344 C 209.554688 134.085938 209.808594 133.765625 210.078125 133.464844 C 212.972656 130.148438 216.589844 127.597656 220.566406 125.839844 C 222.558594 124.964844 224.640625 124.285156 226.765625 123.789062 C 227.828125 123.546875 228.902344 123.351562 229.976562 123.210938 C 230.148438 123.191406 230.324219 123.175781 230.496094 123.15625 L 230.769531 124.824219 C 230.96875 126.261719 231.125 127.707031 231.210938 129.160156 C 231.429688 132.066406 231.382812 134.984375 231.171875 137.882812 C 230.929688 140.765625 230.496094 143.679688 229.78125 146.441406 C 229.371094 148.046875 228.835938 149.621094 228.207031 151.160156 C 227.753906 152.273438 227.257812 153.375 226.695312 154.445312 C 226.433594 154.945312 226.152344 155.433594 225.871094 155.921875 C 224.703125 157.9375 223.367188 159.882812 221.871094 161.722656 C 220.007812 164.007812 217.914062 166.136719 215.65625 168.125 C 211.125 172.085938 205.976562 175.488281 200.402344 178.265625 C 203.464844 177.613281 206.441406 176.566406 209.339844 175.320312 C 210.789062 174.695312 212.207031 173.992188 213.609375 173.246094 C 214.996094 172.476562 216.375 171.675781 217.703125 170.789062 C 220.367188 169.027344 222.886719 167 225.199219 164.722656 C 227.484375 162.425781 229.570312 159.875 231.316406 157.078125 C 231.589844 156.652344 231.828125 156.207031 232.082031 155.765625 C 232.179688 155.59375 232.285156 155.429688 232.378906 155.257812 C 232.472656 155.085938 232.582031 154.921875 232.675781 154.746094 C 233.5 153.199219 234.214844 151.589844 234.832031 149.9375 C 234.894531 149.773438 234.945312 149.609375 235.007812 149.445312 C 235.066406 149.28125 235.121094 149.113281 235.179688 148.949219 C 235.28125 148.664062 235.386719 148.378906 235.480469 148.089844 C 236.457031 144.917969 237.160156 141.746094 237.515625 138.488281 C 237.894531 135.246094 237.925781 131.972656 237.71875 128.726562 " fill-opacity="1" fill-rule="nonzero"></path><path fill="#040606" d="M 194.863281 179.9375 L 194.605469 180.066406 C 194.785156 180.175781 194.964844 180.28125 195.144531 180.390625 L 195.832031 180.242188 C 195.507812 180.144531 195.1875 180.039062 194.863281 179.9375 " fill-opacity="1" fill-rule="nonzero"></path><path fill="#ed1583" d="M 209.394531 140.429688 L 209.316406 139.175781 C 209.300781 138.898438 209.253906 138.585938 209.210938 138.277344 L 209.152344 137.84375 C 209.078125 137.40625 208.984375 136.957031 208.875 136.496094 C 208.757812 136.007812 208.625 135.507812 208.464844 134.984375 C 208.25 134.28125 208.015625 133.589844 207.761719 132.925781 C 207.441406 132.089844 207.074219 131.214844 206.601562 130.171875 C 206.488281 129.914062 206.363281 129.664062 206.246094 129.410156 C 206.09375 129.082031 205.945312 128.75 205.785156 128.425781 C 204.546875 125.921875 203.070312 123.355469 201.007812 120.097656 C 199.453125 117.691406 197.683594 115.136719 195.597656 112.292969 C 193.515625 109.515625 191.640625 107.140625 189.707031 104.824219 L 187.351562 102 L 184.988281 104.824219 C 183.105469 107.074219 181.230469 109.445312 179.09375 112.292969 C 177.121094 114.96875 175.347656 117.523438 173.679688 120.097656 C 171.636719 123.316406 170.164062 125.886719 168.898438 128.421875 C 168.75 128.726562 168.617188 129.03125 168.472656 129.332031 C 168.394531 129.5 168.316406 129.667969 168.238281 129.832031 C 167.765625 130.867188 167.3125 131.902344 166.925781 132.921875 C 166.527344 133.96875 166.226562 134.902344 165.984375 135.800781 C 165.929688 136.003906 165.878906 136.203125 165.832031 136.398438 C 165.714844 136.890625 165.613281 137.375 165.53125 137.859375 L 165.472656 138.277344 C 165.429688 138.585938 165.382812 138.898438 165.367188 139.175781 L 165.289062 140.441406 C 165.265625 140.722656 165.265625 140.996094 165.265625 141.269531 L 165.257812 141.9375 C 165.253906 142.261719 165.25 142.582031 165.273438 142.902344 C 165.316406 144.40625 165.488281 145.972656 165.816406 147.855469 C 166.433594 151.070312 167.488281 154.171875 168.953125 157.058594 C 170.378906 159.886719 172.15625 162.558594 174.242188 165 C 175.25 166.171875 176.347656 167.320312 177.496094 168.417969 C 177.710938 168.613281 177.941406 168.824219 178.1875 169.042969 C 175.242188 164.855469 173.019531 160.488281 171.554688 156.019531 C 171.097656 154.65625 170.714844 153.199219 170.417969 151.699219 C 170.097656 150.089844 169.902344 148.65625 169.824219 147.324219 C 169.714844 145.621094 169.714844 144.238281 169.816406 142.96875 L 169.859375 142.539062 C 169.90625 141.964844 169.957031 141.394531 170.027344 140.824219 L 170.1875 139.765625 C 170.222656 139.539062 170.265625 139.34375 170.308594 139.15625 C 170.335938 139.042969 170.359375 138.929688 170.382812 138.8125 C 170.574219 138.074219 170.816406 137.316406 171.140625 136.464844 C 171.777344 134.808594 172.648438 133 173.804688 130.949219 C 175.214844 128.460938 176.839844 125.894531 178.628906 123.324219 C 180.269531 120.9375 182.078125 118.453125 184.011719 115.945312 C 184.976562 114.679688 185.96875 113.40625 186.96875 112.152344 L 187.351562 111.675781 L 187.734375 112.152344 C 187.949219 112.421875 188.160156 112.691406 188.367188 112.964844 L 189.207031 114.03125 C 189.707031 114.671875 190.210938 115.308594 190.699219 115.949219 C 192.777344 118.660156 194.535156 121.074219 196.078125 123.332031 C 197.890625 125.9375 199.515625 128.503906 200.898438 130.953125 C 202.621094 134.003906 203.738281 136.566406 204.308594 138.785156 C 204.339844 138.929688 204.367188 139.042969 204.390625 139.15625 C 204.433594 139.347656 204.480469 139.542969 204.511719 139.765625 L 204.671875 140.816406 C 204.765625 141.535156 204.832031 142.253906 204.882812 142.972656 C 204.988281 144.238281 204.984375 145.621094 204.875 147.324219 C 204.675781 150.222656 204.09375 153.148438 203.148438 156.019531 C 201.691406 160.46875 199.476562 164.824219 196.546875 169.003906 C 196.78125 168.796875 197 168.597656 197.203125 168.410156 C 198.339844 167.324219 199.433594 166.171875 200.449219 164.996094 C 202.527344 162.5625 204.308594 159.890625 205.730469 157.058594 C 207.199219 154.167969 208.253906 151.066406 208.871094 147.84375 C 209.195312 145.972656 209.367188 144.40625 209.410156 142.925781 C 209.441406 142.199219 209.4375 141.429688 209.394531 140.429688 " fill-opacity="1" fill-rule="nonzero"></path><g fill="#000000" fill-opacity="1"><g transform="translate(135.717341, 244.542435)"><g><path d="M 5.265625 -6.765625 L 1.59375 -6.765625 L 1.59375 -4.109375 L 5.15625 -4.109375 L 5.15625 -3.375 L 1.59375 -3.375 L 1.59375 0 L 0.828125 0 L 0.828125 -7.484375 L 5.265625 -7.484375 Z M 5.265625 -6.765625 "></path></g></g></g><g fill="#000000" fill-opacity="1"><g transform="translate(143.996511, 244.542435)"><g><path d="M 1.59375 -0.765625 L 4.265625 -0.765625 L 4.265625 0 L 0.828125 0 L 0.828125 -7.484375 L 1.59375 -7.484375 Z M 1.59375 -0.765625 "></path></g></g></g><g fill="#000000" fill-opacity="1"><g transform="translate(151.275388, 244.542435)"><g><path d="M 7.40625 -3.765625 C 7.40625 -4.609375 7.109375 -5.328125 6.515625 -5.921875 C 5.910156 -6.523438 5.179688 -6.828125 4.328125 -6.828125 C 3.484375 -6.828125 2.765625 -6.523438 2.171875 -5.921875 C 1.566406 -5.328125 1.265625 -4.609375 1.265625 -3.765625 C 1.265625 -2.910156 1.566406 -2.179688 2.171875 -1.578125 C 2.765625 -0.984375 3.484375 -0.6875 4.328125 -0.6875 C 5.179688 -0.6875 5.910156 -0.984375 6.515625 -1.578125 C 7.109375 -2.179688 7.40625 -2.910156 7.40625 -3.765625 Z M 8.1875 -3.765625 C 8.1875 -3.234375 8.085938 -2.734375 7.890625 -2.265625 C 7.679688 -1.796875 7.40625 -1.390625 7.0625 -1.046875 C 6.707031 -0.691406 6.296875 -0.414062 5.828125 -0.21875 C 5.359375 -0.0078125 4.859375 0.09375 4.328125 0.09375 C 3.804688 0.09375 3.3125 -0.0078125 2.84375 -0.21875 C 2.375 -0.414062 1.96875 -0.691406 1.625 -1.046875 C 1.269531 -1.390625 0.992188 -1.796875 0.796875 -2.265625 C 0.597656 -2.734375 0.5 -3.234375 0.5 -3.765625 C 0.5 -4.285156 0.597656 -4.785156 0.796875 -5.265625 C 0.992188 -5.734375 1.269531 -6.140625 1.625 -6.484375 C 1.96875 -6.828125 2.375 -7.097656 2.84375 -7.296875 C 3.3125 -7.492188 3.804688 -7.59375 4.328125 -7.59375 C 4.859375 -7.59375 5.359375 -7.492188 5.828125 -7.296875 C 6.296875 -7.097656 6.707031 -6.828125 7.0625 -6.484375 C 7.40625 -6.140625 7.679688 -5.734375 7.890625 -5.265625 C 8.085938 -4.785156 8.1875 -4.285156 8.1875 -3.765625 Z M 8.1875 -3.765625 "></path></g></g></g><g fill="#000000" fill-opacity="1"><g transform="translate(162.74231, 244.542435)"><g><path d="M 1.59375 -3.703125 L 3.328125 -3.703125 C 3.765625 -3.703125 4.125 -3.847656 4.40625 -4.140625 C 4.6875 -4.441406 4.828125 -4.8125 4.828125 -5.25 C 4.828125 -5.675781 4.691406 -6.035156 4.421875 -6.328125 C 4.148438 -6.609375 3.785156 -6.75 3.328125 -6.75 L 1.59375 -6.75 Z M 5.59375 -5.21875 C 5.59375 -4.570312 5.363281 -4.03125 4.90625 -3.59375 C 4.5 -3.21875 4.003906 -3.007812 3.421875 -2.96875 L 5.71875 0 L 4.6875 0 L 2.5 -2.953125 L 1.59375 -2.953125 L 1.59375 0 L 0.828125 0 L 0.828125 -7.484375 L 3.21875 -7.484375 C 3.882812 -7.484375 4.445312 -7.273438 4.90625 -6.859375 C 5.363281 -6.410156 5.59375 -5.863281 5.59375 -5.21875 Z M 5.59375 -5.21875 "></path></g></g></g><g fill="#000000" fill-opacity="1"><g transform="translate(171.51614, 244.542435)"><g><path d="M 2.03125 -2.75 L 4.75 -2.75 L 3.40625 -6.1875 Z M 6.671875 0 L 5.84375 0 L 5.03125 -2.03125 L 1.75 -2.03125 L 0.953125 0 L 0.109375 0 L 3.40625 -8 Z M 6.671875 0 "></path></g></g></g><g fill="#000000" fill-opacity="1"><g transform="translate(181.092395, 244.542435)"><g><path d="M 1.59375 -0.765625 L 4.265625 -0.765625 L 4.265625 0 L 0.828125 0 L 0.828125 -7.484375 L 1.59375 -7.484375 Z M 1.59375 -0.765625 "></path></g></g></g><g fill="#000000" fill-opacity="1"><g transform="translate(188.371272, 244.542435)"><g></g></g></g><g fill="#000000" fill-opacity="1"><g transform="translate(194.133223, 244.542435)"><g><path d="M 2.03125 -2.75 L 4.75 -2.75 L 3.40625 -6.1875 Z M 6.671875 0 L 5.84375 0 L 5.03125 -2.03125 L 1.75 -2.03125 L 0.953125 0 L 0.109375 0 L 3.40625 -8 Z M 6.671875 0 "></path></g></g></g><g fill="#000000" fill-opacity="1"><g transform="translate(203.709478, 244.542435)"><g><path d="M 1.59375 -3.703125 L 3.328125 -3.703125 C 3.765625 -3.703125 4.125 -3.847656 4.40625 -4.140625 C 4.6875 -4.441406 4.828125 -4.8125 4.828125 -5.25 C 4.828125 -5.675781 4.691406 -6.035156 4.421875 -6.328125 C 4.148438 -6.609375 3.785156 -6.75 3.328125 -6.75 L 1.59375 -6.75 Z M 5.59375 -5.21875 C 5.59375 -4.570312 5.363281 -4.03125 4.90625 -3.59375 C 4.5 -3.21875 4.003906 -3.007812 3.421875 -2.96875 L 5.71875 0 L 4.6875 0 L 2.5 -2.953125 L 1.59375 -2.953125 L 1.59375 0 L 0.828125 0 L 0.828125 -7.484375 L 3.21875 -7.484375 C 3.882812 -7.484375 4.445312 -7.273438 4.90625 -6.859375 C 5.363281 -6.410156 5.59375 -5.863281 5.59375 -5.21875 Z M 5.59375 -5.21875 "></path></g></g></g><g fill="#000000" fill-opacity="1"><g transform="translate(212.483308, 244.542435)"><g><path d="M 0.21875 -6.78125 L 0.21875 -7.5 L 4.625 -7.5 L 4.625 -6.78125 L 2.8125 -6.78125 L 2.8125 -0.015625 L 2.03125 -0.015625 L 2.03125 -6.78125 Z M 0.21875 -6.78125 "></path></g></g></g><g fill="#000000" fill-opacity="1"><g transform="translate(220.113942, 244.542435)"><g><path d="M 1.59375 0 L 0.828125 0 L 0.828125 -7.484375 L 1.59375 -7.484375 Z M 1.59375 0 "></path></g></g></g><g fill="#000000" fill-opacity="1"><g transform="translate(225.326279, 244.542435)"><g><path d="M 2.90625 -3.53125 C 1.375 -3.882812 0.609375 -4.535156 0.609375 -5.484375 C 0.609375 -6.191406 0.859375 -6.722656 1.359375 -7.078125 C 1.847656 -7.421875 2.421875 -7.59375 3.078125 -7.59375 C 4.535156 -7.59375 5.398438 -7.050781 5.671875 -5.96875 L 4.84375 -5.96875 C 4.695312 -6.613281 4.109375 -6.9375 3.078125 -6.9375 C 2.359375 -6.9375 1.859375 -6.722656 1.578125 -6.296875 C 1.460938 -6.128906 1.40625 -5.925781 1.40625 -5.6875 C 1.40625 -5.226562 1.65625 -4.875 2.15625 -4.625 C 2.394531 -4.5 2.894531 -4.335938 3.65625 -4.140625 C 4.414062 -3.941406 4.96875 -3.71875 5.3125 -3.46875 C 5.789062 -3.132812 6.03125 -2.664062 6.03125 -2.0625 C 6.03125 -1.300781 5.734375 -0.726562 5.140625 -0.34375 C 4.640625 -0.0195312 4.019531 0.140625 3.28125 0.140625 C 1.625 0.140625 0.664062 -0.488281 0.40625 -1.75 L 1.3125 -1.75 C 1.457031 -0.957031 2.113281 -0.5625 3.28125 -0.5625 C 4.125 -0.5625 4.707031 -0.789062 5.03125 -1.25 C 5.164062 -1.4375 5.234375 -1.6875 5.234375 -2 C 5.234375 -2.3125 5.113281 -2.566406 4.875 -2.765625 C 4.53125 -3.035156 3.875 -3.289062 2.90625 -3.53125 Z M 2.90625 -3.53125 "></path></g></g></g><g fill="#000000" fill-opacity="1"><g transform="translate(234.42987, 244.542435)"><g><path d="M 0.21875 -6.78125 L 0.21875 -7.5 L 4.625 -7.5 L 4.625 -6.78125 L 2.8125 -6.78125 L 2.8125 -0.015625 L 2.03125 -0.015625 L 2.03125 -6.78125 Z M 0.21875 -6.78125 "></path></g></g></g><g fill="#000000" fill-opacity="1"><g transform="translate(46.228093, 217.852603)"><g><path d="M 4.9375 -3.015625 C 4.9375 -2.535156 4.960938 -2.144531 5.015625 -1.84375 C 5.078125 -1.550781 5.203125 -1.328125 5.390625 -1.171875 C 5.585938 -1.015625 5.859375 -0.898438 6.203125 -0.828125 C 6.546875 -0.765625 7.003906 -0.726562 7.578125 -0.71875 L 7.578125 0 L 0.859375 0 L 0.859375 -0.71875 C 1.296875 -0.726562 1.648438 -0.765625 1.921875 -0.828125 C 2.203125 -0.898438 2.414062 -1.007812 2.5625 -1.15625 C 2.71875 -1.3125 2.816406 -1.523438 2.859375 -1.796875 C 2.910156 -2.078125 2.9375 -2.441406 2.9375 -2.890625 L 2.9375 -11.734375 C 2.9375 -12.179688 2.914062 -12.539062 2.875 -12.8125 C 2.832031 -13.082031 2.742188 -13.296875 2.609375 -13.453125 C 2.472656 -13.617188 2.28125 -13.726562 2.03125 -13.78125 C 1.78125 -13.84375 1.453125 -13.882812 1.046875 -13.90625 L 1.046875 -14.625 L 12.03125 -14.625 L 12.234375 -11 L 11.578125 -11 C 11.492188 -11.539062 11.367188 -11.984375 11.203125 -12.328125 C 11.046875 -12.679688 10.816406 -12.957031 10.515625 -13.15625 C 10.210938 -13.363281 9.832031 -13.507812 9.375 -13.59375 C 8.925781 -13.675781 8.359375 -13.71875 7.671875 -13.71875 L 5.265625 -13.71875 C 5.046875 -13.71875 4.9375 -13.609375 4.9375 -13.390625 L 4.9375 -7.65625 C 5.550781 -7.65625 6.070312 -7.6875 6.5 -7.75 C 6.9375 -7.820312 7.296875 -7.945312 7.578125 -8.125 C 7.867188 -8.300781 8.085938 -8.539062 8.234375 -8.84375 C 8.390625 -9.15625 8.488281 -9.550781 8.53125 -10.03125 L 9.203125 -10.03125 L 9.203125 -4.46875 L 8.53125 -4.46875 C 8.46875 -4.945312 8.363281 -5.34375 8.21875 -5.65625 C 8.082031 -5.976562 7.878906 -6.226562 7.609375 -6.40625 C 7.335938 -6.582031 6.984375 -6.707031 6.546875 -6.78125 C 6.117188 -6.851562 5.582031 -6.890625 4.9375 -6.890625 Z M 4.9375 -3.015625 "></path></g></g></g><g fill="#000000" fill-opacity="1"><g transform="translate(61.083542, 217.852603)"><g><path d="M 13.125 0 L 0.859375 0 L 0.859375 -0.71875 C 1.296875 -0.726562 1.648438 -0.765625 1.921875 -0.828125 C 2.203125 -0.898438 2.414062 -1.007812 2.5625 -1.15625 C 2.71875 -1.3125 2.816406 -1.523438 2.859375 -1.796875 C 2.910156 -2.078125 2.9375 -2.441406 2.9375 -2.890625 L 2.9375 -11.734375 C 2.9375 -12.179688 2.914062 -12.539062 2.875 -12.8125 C 2.832031 -13.082031 2.742188 -13.296875 2.609375 -13.453125 C 2.472656 -13.617188 2.28125 -13.726562 2.03125 -13.78125 C 1.78125 -13.84375 1.453125 -13.882812 1.046875 -13.90625 L 1.046875 -14.625 L 6.828125 -14.625 L 6.828125 -13.90625 C 6.421875 -13.894531 6.09375 -13.859375 5.84375 -13.796875 C 5.59375 -13.734375 5.398438 -13.617188 5.265625 -13.453125 C 5.140625 -13.285156 5.050781 -13.054688 5 -12.765625 C 4.957031 -12.472656 4.9375 -12.085938 4.9375 -11.609375 L 4.9375 -3.421875 C 4.9375 -2.890625 4.988281 -2.453125 5.09375 -2.109375 C 5.207031 -1.773438 5.394531 -1.515625 5.65625 -1.328125 C 5.914062 -1.148438 6.257812 -1.023438 6.6875 -0.953125 C 7.113281 -0.890625 7.660156 -0.859375 8.328125 -0.859375 C 9.046875 -0.859375 9.648438 -0.898438 10.140625 -0.984375 C 10.640625 -1.066406 11.054688 -1.210938 11.390625 -1.421875 C 11.722656 -1.628906 11.988281 -1.914062 12.1875 -2.28125 C 12.382812 -2.65625 12.550781 -3.144531 12.6875 -3.75 L 13.40625 -3.75 Z M 13.125 0 "></path></g></g></g><g fill="#000000" fill-opacity="1"><g transform="translate(77.021774, 217.852603)"><g><path d="M 8.984375 -14.8125 C 10.097656 -14.8125 11.132812 -14.613281 12.09375 -14.21875 C 13.0625 -13.832031 13.898438 -13.296875 14.609375 -12.609375 C 15.316406 -11.929688 15.875 -11.128906 16.28125 -10.203125 C 16.6875 -9.273438 16.890625 -8.273438 16.890625 -7.203125 C 16.890625 -6.171875 16.679688 -5.207031 16.265625 -4.3125 C 15.859375 -3.414062 15.300781 -2.632812 14.59375 -1.96875 C 13.882812 -1.300781 13.046875 -0.773438 12.078125 -0.390625 C 11.117188 -0.00390625 10.085938 0.1875 8.984375 0.1875 C 7.878906 0.1875 6.847656 -0.00390625 5.890625 -0.390625 C 4.929688 -0.773438 4.09375 -1.300781 3.375 -1.96875 C 2.664062 -2.632812 2.101562 -3.414062 1.6875 -4.3125 C 1.28125 -5.207031 1.078125 -6.171875 1.078125 -7.203125 C 1.078125 -8.273438 1.28125 -9.273438 1.6875 -10.203125 C 2.09375 -11.128906 2.648438 -11.929688 3.359375 -12.609375 C 4.066406 -13.296875 4.898438 -13.832031 5.859375 -14.21875 C 6.828125 -14.613281 7.867188 -14.8125 8.984375 -14.8125 Z M 8.984375 -0.859375 C 9.816406 -0.859375 10.566406 -1.003906 11.234375 -1.296875 C 11.898438 -1.585938 12.46875 -2.003906 12.9375 -2.546875 C 13.414062 -3.085938 13.78125 -3.75 14.03125 -4.53125 C 14.289062 -5.3125 14.421875 -6.179688 14.421875 -7.140625 C 14.421875 -8.148438 14.289062 -9.0625 14.03125 -9.875 C 13.78125 -10.695312 13.421875 -11.394531 12.953125 -11.96875 C 12.484375 -12.550781 11.910156 -13 11.234375 -13.3125 C 10.566406 -13.625 9.816406 -13.78125 8.984375 -13.78125 C 8.148438 -13.78125 7.394531 -13.625 6.71875 -13.3125 C 6.050781 -13 5.484375 -12.550781 5.015625 -11.96875 C 4.546875 -11.394531 4.179688 -10.695312 3.921875 -9.875 C 3.671875 -9.0625 3.546875 -8.148438 3.546875 -7.140625 C 3.546875 -6.179688 3.671875 -5.3125 3.921875 -4.53125 C 4.179688 -3.75 4.546875 -3.085938 5.015625 -2.546875 C 5.484375 -2.003906 6.050781 -1.585938 6.71875 -1.296875 C 7.394531 -1.003906 8.148438 -0.859375 8.984375 -0.859375 Z M 8.984375 -0.859375 "></path></g></g></g><g fill="#000000" fill-opacity="1"><g transform="translate(97.120149, 217.852603)"><g><path d="M 15.84375 -2.875 L 18.8125 -11.109375 C 18.988281 -11.609375 19.113281 -12.003906 19.1875 -12.296875 C 19.257812 -12.585938 19.296875 -12.835938 19.296875 -13.046875 C 19.296875 -13.378906 19.191406 -13.601562 18.984375 -13.71875 C 18.773438 -13.84375 18.40625 -13.90625 17.875 -13.90625 L 17.875 -14.625 L 22.5 -14.625 L 22.5 -13.90625 C 21.914062 -13.90625 21.472656 -13.785156 21.171875 -13.546875 C 20.878906 -13.304688 20.628906 -12.914062 20.421875 -12.375 L 15.65625 0.1875 L 14.984375 0.1875 L 11.34375 -10.625 L 7.296875 0.1875 L 6.625 0.1875 L 2.671875 -10.71875 C 2.453125 -11.320312 2.25 -11.828125 2.0625 -12.234375 C 1.875 -12.648438 1.675781 -12.976562 1.46875 -13.21875 C 1.257812 -13.457031 1.019531 -13.628906 0.75 -13.734375 C 0.488281 -13.835938 0.171875 -13.890625 -0.203125 -13.890625 L -0.203125 -14.625 L 5.984375 -14.625 L 5.984375 -13.890625 C 5.335938 -13.890625 4.882812 -13.832031 4.625 -13.71875 C 4.363281 -13.601562 4.234375 -13.378906 4.234375 -13.046875 C 4.234375 -12.890625 4.257812 -12.703125 4.3125 -12.484375 C 4.363281 -12.265625 4.441406 -12.007812 4.546875 -11.71875 L 7.421875 -2.921875 L 9.765625 -9.5 C 9.941406 -9.988281 10.113281 -10.445312 10.28125 -10.875 C 10.457031 -11.300781 10.597656 -11.6875 10.703125 -12.03125 C 10.523438 -12.394531 10.363281 -12.695312 10.21875 -12.9375 C 10.070312 -13.175781 9.925781 -13.363281 9.78125 -13.5 C 9.632812 -13.644531 9.476562 -13.742188 9.3125 -13.796875 C 9.15625 -13.859375 8.988281 -13.890625 8.8125 -13.890625 L 8.8125 -14.625 L 14.625 -14.625 L 14.625 -13.890625 C 14.257812 -13.890625 13.960938 -13.875 13.734375 -13.84375 C 13.503906 -13.820312 13.328125 -13.78125 13.203125 -13.71875 C 13.085938 -13.664062 13.007812 -13.585938 12.96875 -13.484375 C 12.925781 -13.390625 12.90625 -13.269531 12.90625 -13.125 C 12.90625 -12.9375 12.9375 -12.707031 13 -12.4375 C 13.070312 -12.164062 13.171875 -11.820312 13.296875 -11.40625 Z M 15.84375 -2.875 "></path></g></g></g><g fill="#000000" fill-opacity="1"><g transform="translate(121.587639, 217.852603)"><g><path d="M 4.9375 -8.03125 C 5.625 -8.03125 6.195312 -8.070312 6.65625 -8.15625 C 7.125 -8.238281 7.492188 -8.367188 7.765625 -8.546875 C 8.035156 -8.722656 8.226562 -8.953125 8.34375 -9.234375 C 8.46875 -9.515625 8.53125 -9.84375 8.53125 -10.21875 L 9.203125 -10.21875 L 9.203125 -5.03125 L 8.53125 -5.03125 C 8.53125 -5.414062 8.472656 -5.742188 8.359375 -6.015625 C 8.253906 -6.296875 8.066406 -6.523438 7.796875 -6.703125 C 7.523438 -6.890625 7.15625 -7.03125 6.6875 -7.125 C 6.226562 -7.226562 5.644531 -7.28125 4.9375 -7.28125 L 4.9375 -2.984375 C 4.9375 -2.566406 4.988281 -2.21875 5.09375 -1.9375 C 5.195312 -1.664062 5.367188 -1.445312 5.609375 -1.28125 C 5.859375 -1.113281 6.1875 -0.992188 6.59375 -0.921875 C 7 -0.847656 7.5 -0.8125 8.09375 -0.8125 C 8.757812 -0.8125 9.328125 -0.859375 9.796875 -0.953125 C 10.265625 -1.054688 10.65625 -1.21875 10.96875 -1.4375 C 11.289062 -1.664062 11.546875 -1.96875 11.734375 -2.34375 C 11.929688 -2.71875 12.09375 -3.1875 12.21875 -3.75 L 12.9375 -3.75 L 12.65625 0 L 0.859375 0 L 0.859375 -0.71875 C 1.296875 -0.726562 1.648438 -0.765625 1.921875 -0.828125 C 2.203125 -0.898438 2.414062 -1.007812 2.5625 -1.15625 C 2.71875 -1.3125 2.816406 -1.523438 2.859375 -1.796875 C 2.910156 -2.078125 2.9375 -2.441406 2.9375 -2.890625 L 2.9375 -11.734375 C 2.9375 -12.179688 2.914062 -12.539062 2.875 -12.8125 C 2.832031 -13.082031 2.742188 -13.296875 2.609375 -13.453125 C 2.472656 -13.617188 2.28125 -13.726562 2.03125 -13.78125 C 1.78125 -13.84375 1.453125 -13.882812 1.046875 -13.90625 L 1.046875 -14.625 L 12.03125 -14.625 L 12.203125 -11.28125 L 11.53125 -11.28125 C 11.457031 -11.789062 11.332031 -12.207031 11.15625 -12.53125 C 10.988281 -12.851562 10.753906 -13.109375 10.453125 -13.296875 C 10.160156 -13.484375 9.785156 -13.613281 9.328125 -13.6875 C 8.867188 -13.769531 8.316406 -13.8125 7.671875 -13.8125 L 5.265625 -13.8125 C 5.046875 -13.8125 4.9375 -13.703125 4.9375 -13.484375 Z M 4.9375 -8.03125 "></path></g></g></g><g fill="#000000" fill-opacity="1"><g transform="translate(137.506873, 217.852603)"><g><path d="M 12.5 -10.96875 C 12.5 -9.945312 12.191406 -9.097656 11.578125 -8.421875 C 10.972656 -7.753906 10.007812 -7.3125 8.6875 -7.09375 L 12.875 -2.03125 C 13.21875 -1.613281 13.59375 -1.3125 14 -1.125 C 14.414062 -0.945312 14.910156 -0.8125 15.484375 -0.71875 L 15.484375 0 L 11.8125 0 L 7.15625 -5.96875 C 7 -6.175781 6.847656 -6.34375 6.703125 -6.46875 C 6.554688 -6.601562 6.398438 -6.703125 6.234375 -6.765625 C 6.078125 -6.835938 5.894531 -6.882812 5.6875 -6.90625 C 5.476562 -6.925781 5.226562 -6.9375 4.9375 -6.9375 L 4.9375 -2.984375 C 4.9375 -2.515625 4.960938 -2.128906 5.015625 -1.828125 C 5.078125 -1.535156 5.195312 -1.304688 5.375 -1.140625 C 5.5625 -0.972656 5.828125 -0.859375 6.171875 -0.796875 C 6.523438 -0.742188 6.988281 -0.71875 7.5625 -0.71875 L 7.5625 0 L 0.859375 0 L 0.859375 -0.71875 C 1.296875 -0.726562 1.648438 -0.765625 1.921875 -0.828125 C 2.203125 -0.898438 2.414062 -1.007812 2.5625 -1.15625 C 2.71875 -1.3125 2.816406 -1.523438 2.859375 -1.796875 C 2.910156 -2.078125 2.9375 -2.441406 2.9375 -2.890625 L 2.9375 -11.734375 C 2.9375 -12.179688 2.914062 -12.539062 2.875 -12.8125 C 2.832031 -13.082031 2.742188 -13.296875 2.609375 -13.453125 C 2.472656 -13.617188 2.28125 -13.726562 2.03125 -13.78125 C 1.78125 -13.84375 1.453125 -13.882812 1.046875 -13.90625 L 1.046875 -14.625 L 7.015625 -14.625 C 8.765625 -14.625 10.113281 -14.300781 11.0625 -13.65625 C 12.019531 -13.007812 12.5 -12.113281 12.5 -10.96875 Z M 4.9375 -7.890625 L 6.28125 -7.890625 C 7.550781 -7.890625 8.492188 -8.117188 9.109375 -8.578125 C 9.722656 -9.035156 10.03125 -9.800781 10.03125 -10.875 C 10.03125 -11.894531 9.785156 -12.625 9.296875 -13.0625 C 8.804688 -13.507812 8.046875 -13.734375 7.015625 -13.734375 L 5.265625 -13.734375 C 5.046875 -13.734375 4.9375 -13.625 4.9375 -13.40625 Z M 4.9375 -7.890625 "></path></g></g></g><g fill="#000000" fill-opacity="1"><g transform="translate(154.603865, 217.852603)"><g><path d="M 1.109375 -4.46875 L 1.8125 -4.46875 C 1.894531 -3.894531 2.054688 -3.378906 2.296875 -2.921875 C 2.546875 -2.460938 2.859375 -2.078125 3.234375 -1.765625 C 3.609375 -1.453125 4.039062 -1.207031 4.53125 -1.03125 C 5.019531 -0.863281 5.550781 -0.78125 6.125 -0.78125 C 7.0625 -0.78125 7.800781 -1 8.34375 -1.4375 C 8.882812 -1.882812 9.15625 -2.488281 9.15625 -3.25 C 9.15625 -3.5625 9.097656 -3.847656 8.984375 -4.109375 C 8.878906 -4.378906 8.703125 -4.640625 8.453125 -4.890625 C 8.203125 -5.140625 7.863281 -5.382812 7.4375 -5.625 C 7.007812 -5.863281 6.472656 -6.125 5.828125 -6.40625 C 5.046875 -6.75 4.390625 -7.078125 3.859375 -7.390625 C 3.328125 -7.703125 2.898438 -8.03125 2.578125 -8.375 C 2.265625 -8.71875 2.039062 -9.082031 1.90625 -9.46875 C 1.769531 -9.851562 1.703125 -10.296875 1.703125 -10.796875 C 1.703125 -11.378906 1.804688 -11.914062 2.015625 -12.40625 C 2.234375 -12.894531 2.53125 -13.320312 2.90625 -13.6875 C 3.289062 -14.050781 3.738281 -14.328125 4.25 -14.515625 C 4.769531 -14.710938 5.34375 -14.8125 5.96875 -14.8125 C 6.519531 -14.8125 7.035156 -14.722656 7.515625 -14.546875 C 8.003906 -14.367188 8.492188 -14.085938 8.984375 -13.703125 L 9.484375 -14.546875 L 9.921875 -14.546875 L 10.125 -10.765625 L 9.421875 -10.765625 C 9.117188 -11.804688 8.675781 -12.578125 8.09375 -13.078125 C 7.519531 -13.585938 6.828125 -13.84375 6.015625 -13.84375 C 5.242188 -13.84375 4.628906 -13.65625 4.171875 -13.28125 C 3.722656 -12.90625 3.5 -12.390625 3.5 -11.734375 C 3.5 -11.429688 3.546875 -11.15625 3.640625 -10.90625 C 3.742188 -10.664062 3.910156 -10.429688 4.140625 -10.203125 C 4.367188 -9.984375 4.664062 -9.765625 5.03125 -9.546875 C 5.40625 -9.328125 5.863281 -9.097656 6.40625 -8.859375 C 7.34375 -8.441406 8.117188 -8.050781 8.734375 -7.6875 C 9.359375 -7.320312 9.851562 -6.957031 10.21875 -6.59375 C 10.582031 -6.238281 10.84375 -5.859375 11 -5.453125 C 11.15625 -5.054688 11.234375 -4.613281 11.234375 -4.125 C 11.234375 -3.488281 11.101562 -2.90625 10.84375 -2.375 C 10.59375 -1.84375 10.238281 -1.382812 9.78125 -1 C 9.320312 -0.625 8.773438 -0.332031 8.140625 -0.125 C 7.515625 0.0820312 6.820312 0.1875 6.0625 0.1875 C 5.34375 0.1875 4.691406 0.0859375 4.109375 -0.109375 C 3.535156 -0.316406 2.953125 -0.660156 2.359375 -1.140625 L 1.828125 -0.203125 L 1.390625 -0.203125 Z M 1.109375 -4.46875 "></path></g></g></g><g fill="#000000" fill-opacity="1"><g transform="translate(168.984418, 217.852603)"><g></g></g></g><g fill="#000000" fill-opacity="1"><g transform="translate(176.564354, 217.852603)"><g><path d="M 0.71875 0 L 0.71875 -0.71875 C 1.21875 -0.726562 1.613281 -0.765625 1.90625 -0.828125 C 2.207031 -0.898438 2.4375 -1.007812 2.59375 -1.15625 C 2.75 -1.3125 2.851562 -1.523438 2.90625 -1.796875 C 2.96875 -2.078125 3 -2.441406 3 -2.890625 L 3 -11.734375 C 3 -12.179688 2.976562 -12.539062 2.9375 -12.8125 C 2.894531 -13.082031 2.804688 -13.296875 2.671875 -13.453125 C 2.535156 -13.617188 2.335938 -13.726562 2.078125 -13.78125 C 1.828125 -13.84375 1.503906 -13.882812 1.109375 -13.90625 L 1.109375 -14.625 L 6.78125 -14.625 C 8.488281 -14.625 9.816406 -14.320312 10.765625 -13.71875 C 11.722656 -13.113281 12.203125 -12.257812 12.203125 -11.15625 C 12.203125 -10.320312 11.9375 -9.632812 11.40625 -9.09375 C 10.882812 -8.5625 10.050781 -8.128906 8.90625 -7.796875 L 8.90625 -7.71875 C 9.300781 -7.675781 9.644531 -7.628906 9.9375 -7.578125 C 10.226562 -7.523438 10.488281 -7.460938 10.71875 -7.390625 C 10.945312 -7.328125 11.15625 -7.242188 11.34375 -7.140625 C 11.539062 -7.035156 11.738281 -6.921875 11.9375 -6.796875 C 13.0625 -6.003906 13.625 -5.003906 13.625 -3.796875 C 13.625 -3.128906 13.4375 -2.503906 13.0625 -1.921875 C 12.6875 -1.347656 12.164062 -0.894531 11.5 -0.5625 C 11.28125 -0.457031 11.054688 -0.367188 10.828125 -0.296875 C 10.597656 -0.222656 10.332031 -0.164062 10.03125 -0.125 C 9.726562 -0.0820312 9.375 -0.0507812 8.96875 -0.03125 C 8.570312 -0.0078125 8.101562 0 7.5625 0 Z M 7.625 -0.8125 C 9.914062 -0.8125 11.0625 -1.796875 11.0625 -3.765625 C 11.0625 -5.191406 10.472656 -6.191406 9.296875 -6.765625 C 9.085938 -6.847656 8.890625 -6.921875 8.703125 -6.984375 C 8.515625 -7.054688 8.289062 -7.109375 8.03125 -7.140625 C 7.78125 -7.171875 7.476562 -7.191406 7.125 -7.203125 C 6.78125 -7.210938 6.359375 -7.21875 5.859375 -7.21875 L 5 -7.21875 L 5 -2.984375 C 5 -2.210938 5.203125 -1.65625 5.609375 -1.3125 C 6.015625 -0.976562 6.6875 -0.8125 7.625 -0.8125 Z M 6.0625 -8.171875 C 6.457031 -8.171875 6.785156 -8.175781 7.046875 -8.1875 C 7.316406 -8.195312 7.546875 -8.21875 7.734375 -8.25 C 7.921875 -8.28125 8.085938 -8.320312 8.234375 -8.375 C 8.378906 -8.4375 8.53125 -8.519531 8.6875 -8.625 C 9.09375 -8.875 9.378906 -9.175781 9.546875 -9.53125 C 9.710938 -9.882812 9.796875 -10.347656 9.796875 -10.921875 C 9.796875 -11.921875 9.550781 -12.640625 9.0625 -13.078125 C 8.582031 -13.515625 7.820312 -13.734375 6.78125 -13.734375 L 5.3125 -13.734375 C 5.101562 -13.734375 5 -13.625 5 -13.40625 L 5 -8.171875 Z M 6.0625 -8.171875 "></path></g></g></g><g fill="#000000" fill-opacity="1"><g transform="translate(193.262427, 217.852603)"><g><path d="M 2.171875 -12.28125 C 1.972656 -12.601562 1.789062 -12.867188 1.625 -13.078125 C 1.46875 -13.285156 1.300781 -13.453125 1.125 -13.578125 C 0.957031 -13.710938 0.773438 -13.800781 0.578125 -13.84375 C 0.390625 -13.882812 0.164062 -13.90625 -0.09375 -13.90625 L -0.09375 -14.625 L 5.890625 -14.625 L 5.890625 -13.90625 C 5.253906 -13.90625 4.804688 -13.859375 4.546875 -13.765625 C 4.285156 -13.671875 4.15625 -13.503906 4.15625 -13.265625 C 4.15625 -12.992188 4.300781 -12.613281 4.59375 -12.125 L 7.546875 -7.09375 L 7.625 -7.09375 L 9.765625 -10.703125 C 10.171875 -11.378906 10.457031 -11.914062 10.625 -12.3125 C 10.800781 -12.707031 10.890625 -13.023438 10.890625 -13.265625 C 10.890625 -13.503906 10.796875 -13.671875 10.609375 -13.765625 C 10.429688 -13.859375 10.113281 -13.90625 9.65625 -13.90625 L 9.65625 -14.625 L 14 -14.625 L 14 -13.90625 C 13.738281 -13.90625 13.503906 -13.867188 13.296875 -13.796875 C 13.085938 -13.722656 12.867188 -13.570312 12.640625 -13.34375 C 12.410156 -13.113281 12.15625 -12.796875 11.875 -12.390625 C 11.601562 -11.984375 11.273438 -11.453125 10.890625 -10.796875 L 7.96875 -5.859375 L 7.96875 -3.59375 C 7.96875 -2.96875 7.988281 -2.46875 8.03125 -2.09375 C 8.070312 -1.71875 8.164062 -1.429688 8.3125 -1.234375 C 8.457031 -1.035156 8.664062 -0.898438 8.9375 -0.828125 C 9.207031 -0.753906 9.570312 -0.71875 10.03125 -0.71875 L 10.03125 0 L 3.875 0 L 3.875 -0.71875 C 4.332031 -0.71875 4.695312 -0.753906 4.96875 -0.828125 C 5.238281 -0.898438 5.445312 -1.03125 5.59375 -1.21875 C 5.738281 -1.414062 5.835938 -1.691406 5.890625 -2.046875 C 5.941406 -2.398438 5.96875 -2.867188 5.96875 -3.453125 L 5.96875 -5.78125 Z M 2.171875 -12.28125 "></path></g></g></g><g fill="#000000" fill-opacity="1"><g transform="translate(209.314631, 217.852603)"><g></g></g></g><g fill="#000000" fill-opacity="1"><g transform="translate(216.894567, 217.852603)"><g><path d="M 4.9375 -3.015625 C 4.9375 -2.535156 4.960938 -2.144531 5.015625 -1.84375 C 5.078125 -1.550781 5.203125 -1.328125 5.390625 -1.171875 C 5.585938 -1.015625 5.859375 -0.898438 6.203125 -0.828125 C 6.546875 -0.765625 7.003906 -0.726562 7.578125 -0.71875 L 7.578125 0 L 0.859375 0 L 0.859375 -0.71875 C 1.296875 -0.726562 1.648438 -0.765625 1.921875 -0.828125 C 2.203125 -0.898438 2.414062 -1.007812 2.5625 -1.15625 C 2.71875 -1.3125 2.816406 -1.523438 2.859375 -1.796875 C 2.910156 -2.078125 2.9375 -2.441406 2.9375 -2.890625 L 2.9375 -11.734375 C 2.9375 -12.179688 2.914062 -12.539062 2.875 -12.8125 C 2.832031 -13.082031 2.742188 -13.296875 2.609375 -13.453125 C 2.472656 -13.617188 2.28125 -13.726562 2.03125 -13.78125 C 1.78125 -13.84375 1.453125 -13.882812 1.046875 -13.90625 L 1.046875 -14.625 L 12.03125 -14.625 L 12.234375 -11 L 11.578125 -11 C 11.492188 -11.539062 11.367188 -11.984375 11.203125 -12.328125 C 11.046875 -12.679688 10.816406 -12.957031 10.515625 -13.15625 C 10.210938 -13.363281 9.832031 -13.507812 9.375 -13.59375 C 8.925781 -13.675781 8.359375 -13.71875 7.671875 -13.71875 L 5.265625 -13.71875 C 5.046875 -13.71875 4.9375 -13.609375 4.9375 -13.390625 L 4.9375 -7.65625 C 5.550781 -7.65625 6.070312 -7.6875 6.5 -7.75 C 6.9375 -7.820312 7.296875 -7.945312 7.578125 -8.125 C 7.867188 -8.300781 8.085938 -8.539062 8.234375 -8.84375 C 8.390625 -9.15625 8.488281 -9.550781 8.53125 -10.03125 L 9.203125 -10.03125 L 9.203125 -4.46875 L 8.53125 -4.46875 C 8.46875 -4.945312 8.363281 -5.34375 8.21875 -5.65625 C 8.082031 -5.976562 7.878906 -6.226562 7.609375 -6.40625 C 7.335938 -6.582031 6.984375 -6.707031 6.546875 -6.78125 C 6.117188 -6.851562 5.582031 -6.890625 4.9375 -6.890625 Z M 4.9375 -3.015625 "></path></g></g></g><g fill="#000000" fill-opacity="1"><g transform="translate(231.750016, 217.852603)"><g><path d="M 9.265625 -5.296875 L 4.203125 -5.296875 C 3.984375 -4.773438 3.796875 -4.316406 3.640625 -3.921875 C 3.492188 -3.523438 3.375 -3.179688 3.28125 -2.890625 C 3.1875 -2.597656 3.117188 -2.347656 3.078125 -2.140625 C 3.035156 -1.941406 3.015625 -1.78125 3.015625 -1.65625 C 3.015625 -1.300781 3.128906 -1.054688 3.359375 -0.921875 C 3.585938 -0.785156 3.96875 -0.71875 4.5 -0.71875 L 4.5 0 L -0.109375 0 L -0.109375 -0.71875 C 0.179688 -0.757812 0.429688 -0.8125 0.640625 -0.875 C 0.847656 -0.9375 1.03125 -1.023438 1.1875 -1.140625 C 1.34375 -1.253906 1.476562 -1.398438 1.59375 -1.578125 C 1.71875 -1.765625 1.835938 -1.992188 1.953125 -2.265625 L 6.890625 -14.625 L 7.71875 -14.625 L 12.03125 -3.90625 C 12.320312 -3.195312 12.570312 -2.628906 12.78125 -2.203125 C 13 -1.785156 13.207031 -1.46875 13.40625 -1.25 C 13.613281 -1.039062 13.832031 -0.898438 14.0625 -0.828125 C 14.300781 -0.765625 14.585938 -0.734375 14.921875 -0.734375 L 14.921875 0 L 8.71875 0 L 8.71875 -0.734375 C 9.394531 -0.734375 9.859375 -0.796875 10.109375 -0.921875 C 10.359375 -1.054688 10.484375 -1.269531 10.484375 -1.5625 C 10.484375 -1.6875 10.476562 -1.800781 10.46875 -1.90625 C 10.457031 -2.019531 10.4375 -2.140625 10.40625 -2.265625 C 10.375 -2.390625 10.328125 -2.53125 10.265625 -2.6875 C 10.210938 -2.84375 10.140625 -3.03125 10.046875 -3.25 Z M 4.578125 -6.25 L 8.90625 -6.25 L 6.796875 -11.859375 Z M 4.578125 -6.25 "></path></g></g></g><g fill="#000000" fill-opacity="1"><g transform="translate(248.543075, 217.852603)"><g><path d="M 13.125 0 L 0.859375 0 L 0.859375 -0.71875 C 1.296875 -0.726562 1.648438 -0.765625 1.921875 -0.828125 C 2.203125 -0.898438 2.414062 -1.007812 2.5625 -1.15625 C 2.71875 -1.3125 2.816406 -1.523438 2.859375 -1.796875 C 2.910156 -2.078125 2.9375 -2.441406 2.9375 -2.890625 L 2.9375 -11.734375 C 2.9375 -12.179688 2.914062 -12.539062 2.875 -12.8125 C 2.832031 -13.082031 2.742188 -13.296875 2.609375 -13.453125 C 2.472656 -13.617188 2.28125 -13.726562 2.03125 -13.78125 C 1.78125 -13.84375 1.453125 -13.882812 1.046875 -13.90625 L 1.046875 -14.625 L 6.828125 -14.625 L 6.828125 -13.90625 C 6.421875 -13.894531 6.09375 -13.859375 5.84375 -13.796875 C 5.59375 -13.734375 5.398438 -13.617188 5.265625 -13.453125 C 5.140625 -13.285156 5.050781 -13.054688 5 -12.765625 C 4.957031 -12.472656 4.9375 -12.085938 4.9375 -11.609375 L 4.9375 -3.421875 C 4.9375 -2.890625 4.988281 -2.453125 5.09375 -2.109375 C 5.207031 -1.773438 5.394531 -1.515625 5.65625 -1.328125 C 5.914062 -1.148438 6.257812 -1.023438 6.6875 -0.953125 C 7.113281 -0.890625 7.660156 -0.859375 8.328125 -0.859375 C 9.046875 -0.859375 9.648438 -0.898438 10.140625 -0.984375 C 10.640625 -1.066406 11.054688 -1.210938 11.390625 -1.421875 C 11.722656 -1.628906 11.988281 -1.914062 12.1875 -2.28125 C 12.382812 -2.65625 12.550781 -3.144531 12.6875 -3.75 L 13.40625 -3.75 Z M 13.125 0 "></path></g></g></g><g fill="#000000" fill-opacity="1"><g transform="translate(264.481306, 217.852603)"><g><path d="M 8.125 0.1875 C 7.050781 0.1875 6.082031 0.015625 5.21875 -0.328125 C 4.363281 -0.671875 3.628906 -1.15625 3.015625 -1.78125 C 2.410156 -2.40625 1.945312 -3.164062 1.625 -4.0625 C 1.300781 -4.96875 1.140625 -5.96875 1.140625 -7.0625 C 1.140625 -8.21875 1.316406 -9.269531 1.671875 -10.21875 C 2.023438 -11.164062 2.519531 -11.984375 3.15625 -12.671875 C 3.800781 -13.359375 4.566406 -13.882812 5.453125 -14.25 C 6.347656 -14.625 7.335938 -14.8125 8.421875 -14.8125 C 9.179688 -14.8125 9.894531 -14.703125 10.5625 -14.484375 C 11.238281 -14.273438 11.96875 -13.929688 12.75 -13.453125 L 13.140625 -14.625 L 13.8125 -14.625 L 13.5625 -10.265625 L 12.65625 -10.265625 C 12.65625 -10.878906 12.535156 -11.410156 12.296875 -11.859375 C 12.066406 -12.316406 11.757812 -12.6875 11.375 -12.96875 C 11 -13.257812 10.566406 -13.472656 10.078125 -13.609375 C 9.585938 -13.753906 9.09375 -13.828125 8.59375 -13.828125 C 7.8125 -13.828125 7.117188 -13.675781 6.515625 -13.375 C 5.910156 -13.070312 5.394531 -12.632812 4.96875 -12.0625 C 4.550781 -11.488281 4.234375 -10.789062 4.015625 -9.96875 C 3.796875 -9.144531 3.6875 -8.21875 3.6875 -7.1875 C 3.6875 -5.144531 4.109375 -3.578125 4.953125 -2.484375 C 5.804688 -1.390625 7.035156 -0.84375 8.640625 -0.84375 C 9.253906 -0.84375 9.800781 -0.910156 10.28125 -1.046875 C 10.757812 -1.191406 11.164062 -1.390625 11.5 -1.640625 C 11.84375 -1.890625 12.097656 -2.175781 12.265625 -2.5 C 12.429688 -2.820312 12.515625 -3.160156 12.515625 -3.515625 C 12.515625 -4.242188 12.363281 -4.738281 12.0625 -5 C 11.769531 -5.257812 11.289062 -5.390625 10.625 -5.390625 L 10.625 -6.125 L 16.015625 -6.125 L 16.015625 -5.390625 C 15.710938 -5.390625 15.457031 -5.363281 15.25 -5.3125 C 15.050781 -5.269531 14.890625 -5.179688 14.765625 -5.046875 C 14.648438 -4.910156 14.566406 -4.734375 14.515625 -4.515625 C 14.472656 -4.304688 14.453125 -4.035156 14.453125 -3.703125 L 14.453125 -1.578125 C 14.210938 -1.578125 13.992188 -1.566406 13.796875 -1.546875 C 13.609375 -1.523438 13.40625 -1.476562 13.1875 -1.40625 C 12.96875 -1.34375 12.726562 -1.25 12.46875 -1.125 C 12.207031 -1.007812 11.898438 -0.847656 11.546875 -0.640625 C 11.109375 -0.390625 10.597656 -0.1875 10.015625 -0.03125 C 9.441406 0.113281 8.8125 0.1875 8.125 0.1875 Z M 8.125 0.1875 "></path></g></g></g><g fill="#000000" fill-opacity="1"><g transform="translate(283.135976, 217.852603)"><g><path d="M 13.71875 -5.890625 C 13.71875 -4.890625 13.617188 -4.007812 13.421875 -3.25 C 13.222656 -2.488281 12.90625 -1.851562 12.46875 -1.34375 C 12.03125 -0.84375 11.460938 -0.460938 10.765625 -0.203125 C 10.078125 0.0546875 9.238281 0.1875 8.25 0.1875 C 7.3125 0.1875 6.492188 0.0976562 5.796875 -0.078125 C 5.097656 -0.265625 4.515625 -0.570312 4.046875 -1 C 3.578125 -1.425781 3.226562 -1.976562 3 -2.65625 C 2.769531 -3.34375 2.65625 -4.1875 2.65625 -5.1875 L 2.65625 -10.203125 C 2.65625 -11.140625 2.632812 -11.859375 2.59375 -12.359375 C 2.550781 -12.867188 2.421875 -13.242188 2.203125 -13.484375 C 2.046875 -13.648438 1.835938 -13.757812 1.578125 -13.8125 C 1.328125 -13.875 0.984375 -13.90625 0.546875 -13.90625 L 0.546875 -14.625 L 7.03125 -14.625 L 7.03125 -13.90625 C 6.601562 -13.90625 6.253906 -13.878906 5.984375 -13.828125 C 5.722656 -13.773438 5.515625 -13.648438 5.359375 -13.453125 C 5.179688 -13.222656 5.066406 -12.859375 5.015625 -12.359375 C 4.960938 -11.859375 4.9375 -11.140625 4.9375 -10.203125 L 4.9375 -5.03125 C 4.9375 -4.382812 5.003906 -3.8125 5.140625 -3.3125 C 5.273438 -2.8125 5.492188 -2.382812 5.796875 -2.03125 C 6.097656 -1.6875 6.492188 -1.425781 6.984375 -1.25 C 7.472656 -1.070312 8.070312 -0.984375 8.78125 -0.984375 C 10.039062 -0.984375 10.988281 -1.332031 11.625 -2.03125 C 12.257812 -2.738281 12.578125 -3.78125 12.578125 -5.15625 L 12.578125 -9.734375 C 12.578125 -10.859375 12.53125 -11.710938 12.4375 -12.296875 C 12.351562 -12.878906 12.191406 -13.289062 11.953125 -13.53125 C 11.773438 -13.695312 11.550781 -13.800781 11.28125 -13.84375 C 11.019531 -13.882812 10.691406 -13.90625 10.296875 -13.90625 L 10.296875 -14.625 L 15.8125 -14.625 L 15.8125 -13.90625 C 15.40625 -13.90625 15.070312 -13.875 14.8125 -13.8125 C 14.550781 -13.75 14.34375 -13.609375 14.1875 -13.390625 C 14 -13.128906 13.875 -12.71875 13.8125 -12.15625 C 13.75 -11.59375 13.71875 -10.785156 13.71875 -9.734375 Z M 13.71875 -5.890625 "></path></g></g></g><g fill="#000000" fill-opacity="1"><g transform="translate(301.619693, 217.852603)"><g><path d="M 13.1875 0.1875 L 4.15625 -11.703125 L 4.078125 -11.703125 L 4.078125 -3.59375 C 4.078125 -2.957031 4.097656 -2.453125 4.140625 -2.078125 C 4.191406 -1.710938 4.28125 -1.429688 4.40625 -1.234375 C 4.539062 -1.035156 4.734375 -0.898438 4.984375 -0.828125 C 5.234375 -0.765625 5.5625 -0.726562 5.96875 -0.71875 L 5.96875 0 L 0.859375 0 L 0.859375 -0.71875 C 1.296875 -0.726562 1.648438 -0.769531 1.921875 -0.84375 C 2.203125 -0.914062 2.414062 -1.046875 2.5625 -1.234375 C 2.71875 -1.421875 2.816406 -1.6875 2.859375 -2.03125 C 2.910156 -2.382812 2.9375 -2.859375 2.9375 -3.453125 L 2.9375 -11.171875 C 2.9375 -11.703125 2.914062 -12.140625 2.875 -12.484375 C 2.832031 -12.835938 2.742188 -13.113281 2.609375 -13.3125 C 2.472656 -13.519531 2.28125 -13.664062 2.03125 -13.75 C 1.78125 -13.832031 1.453125 -13.882812 1.046875 -13.90625 L 1.046875 -14.625 L 4.8125 -14.625 L 13.109375 -3.546875 L 13.1875 -3.546875 L 13.1875 -11.03125 C 13.1875 -11.65625 13.160156 -12.15625 13.109375 -12.53125 C 13.066406 -12.90625 12.976562 -13.191406 12.84375 -13.390625 C 12.71875 -13.597656 12.53125 -13.734375 12.28125 -13.796875 C 12.03125 -13.859375 11.707031 -13.894531 11.3125 -13.90625 L 11.3125 -14.625 L 16.421875 -14.625 L 16.421875 -13.90625 C 15.972656 -13.894531 15.613281 -13.851562 15.34375 -13.78125 C 15.070312 -13.71875 14.859375 -13.585938 14.703125 -13.390625 C 14.554688 -13.203125 14.457031 -12.929688 14.40625 -12.578125 C 14.351562 -12.222656 14.328125 -11.753906 14.328125 -11.171875 L 14.328125 0.1875 Z M 13.1875 0.1875 "></path></g></g></g><g fill="#000000" fill-opacity="1"><g transform="translate(320.882227, 217.852603)"><g><path d="M 4.9375 -3.59375 C 4.9375 -2.957031 4.960938 -2.453125 5.015625 -2.078125 C 5.066406 -1.710938 5.164062 -1.429688 5.3125 -1.234375 C 5.457031 -1.035156 5.664062 -0.898438 5.9375 -0.828125 C 6.207031 -0.765625 6.566406 -0.726562 7.015625 -0.71875 L 7.015625 0 L 0.859375 0 L 0.859375 -0.71875 C 1.296875 -0.726562 1.648438 -0.769531 1.921875 -0.84375 C 2.203125 -0.914062 2.414062 -1.046875 2.5625 -1.234375 C 2.71875 -1.421875 2.816406 -1.6875 2.859375 -2.03125 C 2.910156 -2.382812 2.9375 -2.859375 2.9375 -3.453125 L 2.9375 -11.171875 C 2.9375 -11.703125 2.914062 -12.140625 2.875 -12.484375 C 2.832031 -12.835938 2.742188 -13.113281 2.609375 -13.3125 C 2.472656 -13.519531 2.28125 -13.664062 2.03125 -13.75 C 1.78125 -13.832031 1.453125 -13.882812 1.046875 -13.90625 L 1.046875 -14.625 L 6.828125 -14.625 L 6.828125 -13.90625 C 6.421875 -13.894531 6.09375 -13.84375 5.84375 -13.75 C 5.59375 -13.664062 5.398438 -13.519531 5.265625 -13.3125 C 5.140625 -13.101562 5.050781 -12.8125 5 -12.4375 C 4.957031 -12.070312 4.9375 -11.601562 4.9375 -11.03125 Z M 4.9375 -3.59375 "></path></g></g></g></svg>